<svg width="147" height="147" viewBox="0 0 147 147" fill="none" xmlns="http://www.w3.org/2000/svg">
<path d="M66.7959 12.1093C67.3853 8.95404 70.1394 6.66669 73.3493 6.66669C76.5591 6.66669 79.3132 8.95404 79.9026 12.1093L86.9093 49.1626C87.9277 54.5539 92.1447 58.7709 97.5359 59.7893L134.589 66.796C137.745 67.3853 140.032 70.1395 140.032 73.3493C140.032 76.5592 137.745 79.3133 134.589 79.9026L97.5359 86.9093C92.1447 87.9277 87.9277 92.1447 86.9093 97.536L79.9026 134.589C79.3132 137.745 76.5591 140.032 73.3493 140.032C70.1394 140.032 67.3853 137.745 66.7959 134.589L59.7893 97.536C58.7708 92.1447 54.5538 87.9277 49.1626 86.9093L12.1093 79.9026C8.95398 79.3133 6.66663 76.5592 6.66663 73.3493C6.66663 70.1395 8.95398 67.3853 12.1093 66.796L49.1626 59.7893C54.5538 58.7709 58.7708 54.5539 59.7893 49.1626L66.7959 12.1093M126.683 6.68265V33.3493M140.016 20.016H113.349" stroke="#80808093" stroke-width="13.3333" stroke-linecap="round" stroke-linejoin="round"/>
</svg>
