<svg width="118" height="118" viewBox="0 0 118 118" fill="none" xmlns="http://www.w3.org/2000/svg">
<path d="M63.0934 6.29522C60.2816 5.01268 57.0518 5.01268 54.24 6.29522L8.53336 27.0952C6.59964 27.9479 5.35178 29.8619 5.35178 31.9752C5.35178 34.0886 6.59964 36.0026 8.53336 36.8552L54.2934 57.7086C57.1051 58.9911 60.3349 58.9911 63.1467 57.7086L108.907 36.9086C110.84 36.0559 112.088 34.1419 112.088 32.0286C112.088 29.9152 110.84 28.0012 108.907 27.1486L63.0934 6.29522" stroke="#80808093" stroke-width="10.6667" stroke-linecap="round" stroke-linejoin="round"/>
<path d="M5.33336 58.6686C5.32821 60.7516 6.53627 62.647 8.42669 63.5219L54.2934 84.3752C57.09 85.6416 60.2967 85.6416 63.0934 84.3752L108.853 63.5752C110.782 62.7082 112.017 60.7834 112 58.6686" stroke="#80808093" stroke-width="10.6667" stroke-linecap="round" stroke-linejoin="round"/>
<path d="M5.33336 85.3353C5.32821 87.4183 6.53627 89.3137 8.42669 90.1886L54.2934 111.042C57.09 112.308 60.2967 112.308 63.0934 111.042L108.853 90.2419C110.782 89.3749 112.017 87.45 112 85.3353" stroke="#80808093" stroke-width="10.6667" stroke-linecap="round" stroke-linejoin="round"/>
</svg>
