<svg width="161" height="177" viewBox="0 0 161 177" fill="none" xmlns="http://www.w3.org/2000/svg">
<path d="M16.0275 104.021C12.9375 104.032 10.1177 102.262 8.78388 99.4747C7.45007 96.6873 7.84075 93.3811 9.78748 90.9814L88.9875 9.3814C90.2111 7.96903 92.2495 7.59206 93.8973 8.47343C95.5451 9.35481 96.3631 11.2596 95.8675 13.0614L80.5075 61.2214C79.5881 63.682 79.9352 66.4371 81.4362 68.5928C82.9372 70.7485 85.4007 72.0299 88.0275 72.0214H144.027C147.117 72.0109 149.937 73.7808 151.271 76.5681C152.605 79.3555 152.214 82.6617 150.267 85.0614L71.0675 166.661C69.8439 168.074 67.8054 168.451 66.1576 167.569C64.5099 166.688 63.6919 164.783 64.1875 162.981L79.5475 114.821C80.4669 112.361 80.1197 109.606 78.6188 107.45C77.1178 105.294 74.6542 104.013 72.0275 104.021H16.0275" stroke="#80808093" stroke-width="16" stroke-linecap="round" stroke-linejoin="round"/>
</svg>
